<svg version="1.1" xmlns="http://www.w3.org/2000/svg" width="865" height="409"><desc>Created by Grid Painter http://grid-painter.appspot.com</desc><rect x="0" y="0" width="866" height="410" fill="#ffffff" stroke-width="0" /><path d="M48 0L48 24L72 24L72 0Z" fill="#ff0000" stroke-width="0" /><path d="M72 0L72 24L96 24L96 0Z" fill="#ff0000" stroke-width="0" /><path d="M96 0L96 24L120 24L120 0Z" fill="#ff0000" stroke-width="0" /><path d="M120 0L120 24L144 24L144 0Z" fill="#ff0000" stroke-width="0" /><path d="M144 0L144 24L168 24L168 0Z" fill="#ff0000" stroke-width="0" /><path d="M168 0L168 24L192 24L192 0Z" fill="#ff0000" stroke-width="0" /><path d="M360 0L360 24L384 24L384 0Z" fill="#000000" stroke-width="0" /><path d="M384 0L384 24L408 24L408 0Z" fill="#000000" stroke-width="0" /><path d="M408 0L408 24L432 24L432 0Z" fill="#000000" stroke-width="0" /><path d="M432 0L432 24L456 24L456 0Z" fill="#000000" stroke-width="0" /><path d="M456 0L456 24L480 24L480 0Z" fill="#000000" stroke-width="0" /><path d="M480 0L480 24L504 24L504 0Z" fill="#000000" stroke-width="0" /><path d="M504 0L504 24L528 24L528 0Z" fill="#000000" stroke-width="0" /><path d="M528 0L528 24L552 24L552 0Z" fill="#000000" stroke-width="0" /><path d="M552 0L552 24L576 24L576 0Z" fill="#000000" stroke-width="0" /><path d="M576 0L576 24L600 24L600 0Z" fill="#000000" stroke-width="0" /><path d="M600 0L600 24L624 24L624 0Z" fill="#000000" stroke-width="0" /><path d="M624 0L624 24L648 24L648 0Z" fill="#000000" stroke-width="0" /><path d="M648 0L648 24L672 24L672 0Z" fill="#000000" stroke-width="0" /><path d="M672 0L672 24L696 24L696 0Z" fill="#000000" stroke-width="0" /><path d="M0 24L0 48L24 48L24 24Z" fill="#ff0000" stroke-width="0" /><path d="M24 24L24 48L48 48L48 24Z" fill="#ff0000" stroke-width="0" /><path d="M48 24L48 48L72 48L72 24Z" fill="#ff0000" stroke-width="0" /><path d="M72 24L72 48L96 48L96 24Z" fill="#ff0000" stroke-width="0" /><path d="M96 24L96 48L120 48L120 24Z" fill="#ff0000" stroke-width="0" /><path d="M120 24L120 48L144 48L144 24Z" fill="#ff0000" stroke-width="0" /><path d="M144 24L144 48L168 48L168 24Z" fill="#ff0000" stroke-width="0" /><path d="M168 24L168 48L192 48L192 24Z" fill="#ff0000" stroke-width="0" /><path d="M192 24L192 48L216 48L216 24Z" fill="#ff0000" stroke-width="0" /><path d="M216 24L216 48L240 48L240 24Z" fill="#ff0000" stroke-width="0" /><path d="M240 24L240 48L264 48L264 24Z" fill="#ff0000" stroke-width="0" /><path d="M264 24L264 48L288 48L288 24Z" fill="#ff0000" stroke-width="0" /><path d="M288 24L288 48L312 48L312 24Z" fill="#ff0000" stroke-width="0" /><path d="M312 24L312 48L336 48L336 24Z" fill="#ff0000" stroke-width="0" /><path d="M336 24L336 48L360 48L360 24Z" fill="#000000" stroke-width="0" /><path d="M360 24L360 48L384 48L384 24Z" fill="#ffff88" stroke-width="0" /><path d="M384 24L384 48L408 48L408 24Z" fill="#ffff88" stroke-width="0" /><path d="M408 24L408 48L432 48L432 24Z" fill="#ffff88" stroke-width="0" /><path d="M432 24L432 48L456 48L456 24Z" fill="#ffff88" stroke-width="0" /><path d="M456 24L456 48L480 48L480 24Z" fill="#ffff88" stroke-width="0" /><path d="M480 24L480 48L504 48L504 24Z" fill="#ffff88" stroke-width="0" /><path d="M504 24L504 48L528 48L528 24Z" fill="#ffff88" stroke-width="0" /><path d="M528 24L528 48L552 48L552 24Z" fill="#ffff88" stroke-width="0" /><path d="M552 24L552 48L576 48L576 24Z" fill="#ffff88" stroke-width="0" /><path d="M576 24L576 48L600 48L600 24Z" fill="#ffff88" stroke-width="0" /><path d="M600 24L600 48L624 48L624 24Z" fill="#ffff88" stroke-width="0" /><path d="M624 24L624 48L648 48L648 24Z" fill="#ffff88" stroke-width="0" /><path d="M648 24L648 48L672 48L672 24Z" fill="#ffff88" stroke-width="0" /><path d="M672 24L672 48L696 48L696 24Z" fill="#ffff88" stroke-width="0" /><path d="M696 24L696 48L720 48L720 24Z" fill="#000000" stroke-width="0" /><path d="M0 48L0 72L24 72L24 48Z" fill="#ff0000" stroke-width="0" /><path d="M24 48L24 72L48 72L48 48Z" fill="#ff0000" stroke-width="0" /><path d="M48 48L48 72L72 72L72 48Z" fill="#ff0000" stroke-width="0" /><path d="M72 48L72 72L96 72L96 48Z" fill="#ff7400" stroke-width="0" /><path d="M96 48L96 72L120 72L120 48Z" fill="#ff7400" stroke-width="0" /><path d="M120 48L120 72L144 72L144 48Z" fill="#ff7400" stroke-width="0" /><path d="M144 48L144 72L168 72L168 48Z" fill="#ff7400" stroke-width="0" /><path d="M168 48L168 72L192 72L192 48Z" fill="#ff7400" stroke-width="0" /><path d="M192 48L192 72L216 72L216 48Z" fill="#ff0000" stroke-width="0" /><path d="M216 48L216 72L240 72L240 48Z" fill="#ff0000" stroke-width="0" /><path d="M240 48L240 72L264 72L264 48Z" fill="#ff0000" stroke-width="0" /><path d="M264 48L264 72L288 72L288 48Z" fill="#ff0000" stroke-width="0" /><path d="M288 48L288 72L312 72L312 48Z" fill="#ff0000" stroke-width="0" /><path d="M312 48L312 72L336 72L336 48Z" fill="#000000" stroke-width="0" /><path d="M336 48L336 72L360 72L360 48Z" fill="#ffff88" stroke-width="0" /><path d="M360 48L360 72L384 72L384 48Z" fill="#ffff88" stroke-width="0" /><path d="M384 48L384 72L408 72L408 48Z" fill="#ff52c8" stroke-width="0" /><path d="M408 48L408 72L432 72L432 48Z" fill="#ff52c8" stroke-width="0" /><path d="M432 48L432 72L456 72L456 48Z" fill="#ff52c8" stroke-width="0" /><path d="M456 48L456 72L480 72L480 48Z" fill="#ff52c8" stroke-width="0" /><path d="M480 48L480 72L504 72L504 48Z" fill="#9436ff" stroke-width="0" /><path d="M504 48L504 72L528 72L528 48Z" fill="#ff52c8" stroke-width="0" /><path d="M528 48L528 72L552 72L552 48Z" fill="#ff52c8" stroke-width="0" /><path d="M552 48L552 72L576 72L576 48Z" fill="#9436ff" stroke-width="0" /><path d="M576 48L576 72L600 72L600 48Z" fill="#ff52c8" stroke-width="0" /><path d="M600 48L600 72L624 72L624 48Z" fill="#ff52c8" stroke-width="0" /><path d="M624 48L624 72L648 72L648 48Z" fill="#ff52c8" stroke-width="0" /><path d="M648 48L648 72L672 72L672 48Z" fill="#ffff88" stroke-width="0" /><path d="M672 48L672 72L696 72L696 48Z" fill="#ffff88" stroke-width="0" /><path d="M696 48L696 72L720 72L720 48Z" fill="#ffff88" stroke-width="0" /><path d="M720 48L720 72L744 72L744 48Z" fill="#000000" stroke-width="0" /><path d="M0 72L0 96L24 96L24 72Z" fill="#ff7400" stroke-width="0" /><path d="M24 72L24 96L48 96L48 72Z" fill="#ff7400" stroke-width="0" /><path d="M48 72L48 96L72 96L72 72Z" fill="#ff7400" stroke-width="0" /><path d="M72 72L72 96L96 96L96 72Z" fill="#ff7400" stroke-width="0" /><path d="M96 72L96 96L120 96L120 72Z" fill="#ff7400" stroke-width="0" /><path d="M120 72L120 96L144 96L144 72Z" fill="#ff7400" stroke-width="0" /><path d="M144 72L144 96L168 96L168 72Z" fill="#ff7400" stroke-width="0" /><path d="M168 72L168 96L192 96L192 72Z" fill="#ff7400" stroke-width="0" /><path d="M192 72L192 96L216 96L216 72Z" fill="#ff7400" stroke-width="0" /><path d="M216 72L216 96L240 96L240 72Z" fill="#ff7400" stroke-width="0" /><path d="M240 72L240 96L264 96L264 72Z" fill="#ff7400" stroke-width="0" /><path d="M264 72L264 96L288 96L288 72Z" fill="#ff7400" stroke-width="0" /><path d="M288 72L288 96L312 96L312 72Z" fill="#ff7400" stroke-width="0" /><path d="M312 72L312 96L336 96L336 72Z" fill="#000000" stroke-width="0" /><path d="M336 72L336 96L360 96L360 72Z" fill="#ffff88" stroke-width="0" /><path d="M360 72L360 96L384 96L384 72Z" fill="#ff52c8" stroke-width="0" /><path d="M384 72L384 96L408 96L408 72Z" fill="#ff52c8" stroke-width="0" /><path d="M408 72L408 96L432 96L432 72Z" fill="#9436ff" stroke-width="0" /><path d="M432 72L432 96L456 96L456 72Z" fill="#ff52c8" stroke-width="0" /><path d="M456 72L456 96L480 96L480 72Z" fill="#ff52c8" stroke-width="0" /><path d="M480 72L480 96L504 96L504 72Z" fill="#ff52c8" stroke-width="0" /><path d="M504 72L504 96L528 96L528 72Z" fill="#ff52c8" stroke-width="0" /><path d="M528 72L528 96L552 96L552 72Z" fill="#000000" stroke-width="0" /><path d="M552 72L552 96L576 96L576 72Z" fill="#000000" stroke-width="0" /><path d="M576 72L576 96L600 96L600 72Z" fill="#ff52c8" stroke-width="0" /><path d="M600 72L600 96L624 96L624 72Z" fill="#ff52c8" stroke-width="0" /><path d="M624 72L624 96L648 96L648 72Z" fill="#ff52c8" stroke-width="0" /><path d="M648 72L648 96L672 96L672 72Z" fill="#ff52c8" stroke-width="0" /><path d="M672 72L672 96L696 96L696 72Z" fill="#ff52c8" stroke-width="0" /><path d="M696 72L696 96L720 96L720 72Z" fill="#ffff88" stroke-width="0" /><path d="M720 72L720 96L744 96L744 72Z" fill="#000000" stroke-width="0" /><path d="M768 72L768 96L792 96L792 72Z" fill="#000000" stroke-width="0" /><path d="M792 72L792 96L816 96L816 72Z" fill="#000000" stroke-width="0" /><path d="M0 96L0 120L24 120L24 96Z" fill="#ff7400" stroke-width="0" /><path d="M24 96L24 120L48 120L48 96Z" fill="#ff7400" stroke-width="0" /><path d="M48 96L48 120L72 120L72 96Z" fill="#ff7400" stroke-width="0" /><path d="M72 96L72 120L96 120L96 96Z" fill="#fff200" stroke-width="0" /><path d="M96 96L96 120L120 120L120 96Z" fill="#fff200" stroke-width="0" /><path d="M120 96L120 120L144 120L144 96Z" fill="#fff200" stroke-width="0" /><path d="M144 96L144 120L168 120L168 96Z" fill="#fff200" stroke-width="0" /><path d="M168 96L168 120L192 120L192 96Z" fill="#000000" stroke-width="0" /><path d="M192 96L192 120L216 120L216 96Z" fill="#000000" stroke-width="0" /><path d="M216 96L216 120L240 120L240 96Z" fill="#000000" stroke-width="0" /><path d="M240 96L240 120L264 120L264 96Z" fill="#000000" stroke-width="0" /><path d="M264 96L264 120L288 120L288 96Z" fill="#ff7400" stroke-width="0" /><path d="M288 96L288 120L312 120L312 96Z" fill="#ff7400" stroke-width="0" /><path d="M312 96L312 120L336 120L336 96Z" fill="#000000" stroke-width="0" /><path d="M336 96L336 120L360 120L360 96Z" fill="#ffff88" stroke-width="0" /><path d="M360 96L360 120L384 120L384 96Z" fill="#ff52c8" stroke-width="0" /><path d="M384 96L384 120L408 120L408 96Z" fill="#ff52c8" stroke-width="0" /><path d="M408 96L408 120L432 120L432 96Z" fill="#ff52c8" stroke-width="0" /><path d="M432 96L432 120L456 120L456 96Z" fill="#ff52c8" stroke-width="0" /><path d="M456 96L456 120L480 120L480 96Z" fill="#ff52c8" stroke-width="0" /><path d="M480 96L480 120L504 120L504 96Z" fill="#ff52c8" stroke-width="0" /><path d="M504 96L504 120L528 120L528 96Z" fill="#000000" stroke-width="0" /><path d="M528 96L528 120L552 120L552 96Z" fill="#474545" stroke-width="0" /><path d="M552 96L552 120L576 120L576 96Z" fill="#474545" stroke-width="0" /><path d="M576 96L576 120L600 120L600 96Z" fill="#000000" stroke-width="0" /><path d="M600 96L600 120L624 120L624 96Z" fill="#ff52c8" stroke-width="0" /><path d="M624 96L624 120L648 120L648 96Z" fill="#ff52c8" stroke-width="0" /><path d="M648 96L648 120L672 120L672 96Z" fill="#9436ff" stroke-width="0" /><path d="M672 96L672 120L696 120L696 96Z" fill="#ff52c8" stroke-width="0" /><path d="M696 96L696 120L720 120L720 96Z" fill="#ffff88" stroke-width="0" /><path d="M720 96L720 120L744 120L744 96Z" fill="#000000" stroke-width="0" /><path d="M744 96L744 120L768 120L768 96Z" fill="#000000" stroke-width="0" /><path d="M768 96L768 120L792 120L792 96Z" fill="#474545" stroke-width="0" /><path d="M792 96L792 120L816 120L816 96Z" fill="#474545" stroke-width="0" /><path d="M816 96L816 120L840 120L840 96Z" fill="#000000" stroke-width="0" /><path d="M0 120L0 144L24 144L24 120Z" fill="#fff200" stroke-width="0" /><path d="M24 120L24 144L48 144L48 120Z" fill="#fff200" stroke-width="0" /><path d="M48 120L48 144L72 144L72 120Z" fill="#fff200" stroke-width="0" /><path d="M72 120L72 144L96 144L96 120Z" fill="#fff200" stroke-width="0" /><path d="M96 120L96 144L120 144L120 120Z" fill="#fff200" stroke-width="0" /><path d="M120 120L120 144L144 144L144 120Z" fill="#fff200" stroke-width="0" /><path d="M144 120L144 144L168 144L168 120Z" fill="#000000" stroke-width="0" /><path d="M168 120L168 144L192 144L192 120Z" fill="#474545" stroke-width="0" /><path d="M192 120L192 144L216 144L216 120Z" fill="#474545" stroke-width="0" /><path d="M216 120L216 144L240 144L240 120Z" fill="#474545" stroke-width="0" /><path d="M240 120L240 144L264 144L264 120Z" fill="#000000" stroke-width="0" /><path d="M264 120L264 144L288 144L288 120Z" fill="#000000" stroke-width="0" /><path d="M288 120L288 144L312 144L312 120Z" fill="#000000" stroke-width="0" /><path d="M312 120L312 144L336 144L336 120Z" fill="#000000" stroke-width="0" /><path d="M336 120L336 144L360 144L360 120Z" fill="#ffff88" stroke-width="0" /><path d="M360 120L360 144L384 144L384 120Z" fill="#ff52c8" stroke-width="0" /><path d="M384 120L384 144L408 144L408 120Z" fill="#ff52c8" stroke-width="0" /><path d="M408 120L408 144L432 144L432 120Z" fill="#ff52c8" stroke-width="0" /><path d="M432 120L432 144L456 144L456 120Z" fill="#ff52c8" stroke-width="0" /><path d="M456 120L456 144L480 144L480 120Z" fill="#ff52c8" stroke-width="0" /><path d="M480 120L480 144L504 144L504 120Z" fill="#ff52c8" stroke-width="0" /><path d="M504 120L504 144L528 144L528 120Z" fill="#000000" stroke-width="0" /><path d="M528 120L528 144L552 144L552 120Z" fill="#474545" stroke-width="0" /><path d="M552 120L552 144L576 144L576 120Z" fill="#474545" stroke-width="0" /><path d="M576 120L576 144L600 144L600 120Z" fill="#474545" stroke-width="0" /><path d="M600 120L600 144L624 144L624 120Z" fill="#000000" stroke-width="0" /><path d="M624 120L624 144L648 144L648 120Z" fill="#ff52c8" stroke-width="0" /><path d="M648 120L648 144L672 144L672 120Z" fill="#ff52c8" stroke-width="0" /><path d="M672 120L672 144L696 144L696 120Z" fill="#ff52c8" stroke-width="0" /><path d="M696 120L696 144L720 144L720 120Z" fill="#ffff88" stroke-width="0" /><path d="M720 120L720 144L744 144L744 120Z" fill="#000000" stroke-width="0" /><path d="M744 120L744 144L768 144L768 120Z" fill="#474545" stroke-width="0" /><path d="M768 120L768 144L792 144L792 120Z" fill="#474545" stroke-width="0" /><path d="M792 120L792 144L816 144L816 120Z" fill="#474545" stroke-width="0" /><path d="M816 120L816 144L840 144L840 120Z" fill="#000000" stroke-width="0" /><path d="M0 144L0 168L24 168L24 144Z" fill="#fff200" stroke-width="0" /><path d="M24 144L24 168L48 168L48 144Z" fill="#fff200" stroke-width="0" /><path d="M48 144L48 168L72 168L72 144Z" fill="#fff200" stroke-width="0" /><path d="M72 144L72 168L96 168L96 144Z" fill="#00ff09" stroke-width="0" /><path d="M96 144L96 168L120 168L120 144Z" fill="#00ff09" stroke-width="0" /><path d="M120 144L120 168L144 168L144 144Z" fill="#00ff09" stroke-width="0" /><path d="M144 144L144 168L168 168L168 144Z" fill="#000000" stroke-width="0" /><path d="M168 144L168 168L192 168L192 144Z" fill="#000000" stroke-width="0" /><path d="M192 144L192 168L216 168L216 144Z" fill="#474545" stroke-width="0" /><path d="M216 144L216 168L240 168L240 144Z" fill="#474545" stroke-width="0" /><path d="M240 144L240 168L264 168L264 144Z" fill="#474545" stroke-width="0" /><path d="M264 144L264 168L288 168L288 144Z" fill="#474545" stroke-width="0" /><path d="M288 144L288 168L312 168L312 144Z" fill="#474545" stroke-width="0" /><path d="M312 144L312 168L336 168L336 144Z" fill="#000000" stroke-width="0" /><path d="M336 144L336 168L360 168L360 144Z" fill="#ffff88" stroke-width="0" /><path d="M360 144L360 168L384 168L384 144Z" fill="#ff52c8" stroke-width="0" /><path d="M384 144L384 168L408 168L408 144Z" fill="#ff52c8" stroke-width="0" /><path d="M408 144L408 168L432 168L432 144Z" fill="#ff52c8" stroke-width="0" /><path d="M432 144L432 168L456 168L456 144Z" fill="#9436ff" stroke-width="0" /><path d="M456 144L456 168L480 168L480 144Z" fill="#ff52c8" stroke-width="0" /><path d="M480 144L480 168L504 168L504 144Z" fill="#ff52c8" stroke-width="0" /><path d="M504 144L504 168L528 168L528 144Z" fill="#000000" stroke-width="0" /><path d="M528 144L528 168L552 168L552 144Z" fill="#474545" stroke-width="0" /><path d="M552 144L552 168L576 168L576 144Z" fill="#474545" stroke-width="0" /><path d="M576 144L576 168L600 168L600 144Z" fill="#474545" stroke-width="0" /><path d="M600 144L600 168L624 168L624 144Z" fill="#474545" stroke-width="0" /><path d="M624 144L624 168L648 168L648 144Z" fill="#000000" stroke-width="0" /><path d="M648 144L648 168L672 168L672 144Z" fill="#000000" stroke-width="0" /><path d="M672 144L672 168L696 168L696 144Z" fill="#000000" stroke-width="0" /><path d="M696 144L696 168L720 168L720 144Z" fill="#000000" stroke-width="0" /><path d="M720 144L720 168L744 168L744 144Z" fill="#474545" stroke-width="0" /><path d="M744 144L744 168L768 168L768 144Z" fill="#474545" stroke-width="0" /><path d="M768 144L768 168L792 168L792 144Z" fill="#474545" stroke-width="0" /><path d="M792 144L792 168L816 168L816 144Z" fill="#474545" stroke-width="0" /><path d="M816 144L816 168L840 168L840 144Z" fill="#000000" stroke-width="0" /><path d="M0 168L0 192L24 192L24 168Z" fill="#00ff09" stroke-width="0" /><path d="M24 168L24 192L48 192L48 168Z" fill="#00ff09" stroke-width="0" /><path d="M48 168L48 192L72 192L72 168Z" fill="#00ff09" stroke-width="0" /><path d="M72 168L72 192L96 192L96 168Z" fill="#00ff09" stroke-width="0" /><path d="M96 168L96 192L120 192L120 168Z" fill="#00ff09" stroke-width="0" /><path d="M120 168L120 192L144 192L144 168Z" fill="#00ff09" stroke-width="0" /><path d="M144 168L144 192L168 192L168 168Z" fill="#00ff09" stroke-width="0" /><path d="M168 168L168 192L192 192L192 168Z" fill="#00ff09" stroke-width="0" /><path d="M192 168L192 192L216 192L216 168Z" fill="#000000" stroke-width="0" /><path d="M216 168L216 192L240 192L240 168Z" fill="#000000" stroke-width="0" /><path d="M240 168L240 192L264 192L264 168Z" fill="#000000" stroke-width="0" /><path d="M264 168L264 192L288 192L288 168Z" fill="#000000" stroke-width="0" /><path d="M288 168L288 192L312 192L312 168Z" fill="#474545" stroke-width="0" /><path d="M312 168L312 192L336 192L336 168Z" fill="#000000" stroke-width="0" /><path d="M336 168L336 192L360 192L360 168Z" fill="#ffff88" stroke-width="0" /><path d="M360 168L360 192L384 192L384 168Z" fill="#ff52c8" stroke-width="0" /><path d="M384 168L384 192L408 192L408 168Z" fill="#ff52c8" stroke-width="0" /><path d="M408 168L408 192L432 192L432 168Z" fill="#ff52c8" stroke-width="0" /><path d="M432 168L432 192L456 192L456 168Z" fill="#ff52c8" stroke-width="0" /><path d="M456 168L456 192L480 192L480 168Z" fill="#ff52c8" stroke-width="0" /><path d="M480 168L480 192L504 192L504 168Z" fill="#ff52c8" stroke-width="0" /><path d="M504 168L504 192L528 192L528 168Z" fill="#000000" stroke-width="0" /><path d="M528 168L528 192L552 192L552 168Z" fill="#474545" stroke-width="0" /><path d="M552 168L552 192L576 192L576 168Z" fill="#474545" stroke-width="0" /><path d="M576 168L576 192L600 192L600 168Z" fill="#474545" stroke-width="0" /><path d="M600 168L600 192L624 192L624 168Z" fill="#474545" stroke-width="0" /><path d="M624 168L624 192L648 192L648 168Z" fill="#474545" stroke-width="0" /><path d="M648 168L648 192L672 192L672 168Z" fill="#474545" stroke-width="0" /><path d="M672 168L672 192L696 192L696 168Z" fill="#474545" stroke-width="0" /><path d="M696 168L696 192L720 192L720 168Z" fill="#474545" stroke-width="0" /><path d="M720 168L720 192L744 192L744 168Z" fill="#474545" stroke-width="0" /><path d="M744 168L744 192L768 192L768 168Z" fill="#474545" stroke-width="0" /><path d="M768 168L768 192L792 192L792 168Z" fill="#474545" stroke-width="0" /><path d="M792 168L792 192L816 192L816 168Z" fill="#474545" stroke-width="0" /><path d="M816 168L816 192L840 192L840 168Z" fill="#000000" stroke-width="0" /><path d="M0 192L0 216L24 216L24 192Z" fill="#00ff09" stroke-width="0" /><path d="M24 192L24 216L48 216L48 192Z" fill="#00ff09" stroke-width="0" /><path d="M48 192L48 216L72 216L72 192Z" fill="#00ff09" stroke-width="0" /><path d="M72 192L72 216L96 216L96 192Z" fill="#4096ee" stroke-width="0" /><path d="M96 192L96 216L120 216L120 192Z" fill="#4096ee" stroke-width="0" /><path d="M120 192L120 216L144 216L144 192Z" fill="#4096ee" stroke-width="0" /><path d="M144 192L144 216L168 216L168 192Z" fill="#4096ee" stroke-width="0" /><path d="M168 192L168 216L192 216L192 192Z" fill="#4096ee" stroke-width="0" /><path d="M192 192L192 216L216 216L216 192Z" fill="#4096ee" stroke-width="0" /><path d="M216 192L216 216L240 216L240 192Z" fill="#4096ee" stroke-width="0" /><path d="M240 192L240 216L264 216L264 192Z" fill="#4096ee" stroke-width="0" /><path d="M264 192L264 216L288 216L288 192Z" fill="#000000" stroke-width="0" /><path d="M288 192L288 216L312 216L312 192Z" fill="#000000" stroke-width="0" /><path d="M312 192L312 216L336 216L336 192Z" fill="#000000" stroke-width="0" /><path d="M336 192L336 216L360 216L360 192Z" fill="#ffff88" stroke-width="0" /><path d="M360 192L360 216L384 216L384 192Z" fill="#ff52c8" stroke-width="0" /><path d="M384 192L384 216L408 216L408 192Z" fill="#ff52c8" stroke-width="0" /><path d="M408 192L408 216L432 216L432 192Z" fill="#ff52c8" stroke-width="0" /><path d="M432 192L432 216L456 216L456 192Z" fill="#ff52c8" stroke-width="0" /><path d="M456 192L456 216L480 216L480 192Z" fill="#9436ff" stroke-width="0" /><path d="M480 192L480 216L504 216L504 192Z" fill="#000000" stroke-width="0" /><path d="M504 192L504 216L528 216L528 192Z" fill="#474545" stroke-width="0" /><path d="M528 192L528 216L552 216L552 192Z" fill="#474545" stroke-width="0" /><path d="M552 192L552 216L576 216L576 192Z" fill="#474545" stroke-width="0" /><path d="M600 192L600 216L624 216L624 192Z" fill="#000000" stroke-width="0" /><path d="M624 192L624 216L648 216L648 192Z" fill="#474545" stroke-width="0" /><path d="M648 192L648 216L672 216L672 192Z" fill="#474545" stroke-width="0" /><path d="M672 192L672 216L696 216L696 192Z" fill="#474545" stroke-width="0" /><path d="M696 192L696 216L720 216L720 192Z" fill="#474545" stroke-width="0" /><path d="M720 192L720 216L744 216L744 192Z" fill="#474545" stroke-width="0" /><path d="M768 192L768 216L792 216L792 192Z" fill="#000000" stroke-width="0" /><path d="M792 192L792 216L816 216L816 192Z" fill="#474545" stroke-width="0" /><path d="M816 192L816 216L840 216L840 192Z" fill="#474545" stroke-width="0" /><path d="M840 192L840 216L864 216L864 192Z" fill="#000000" stroke-width="0" /><path d="M0 216L0 240L24 240L24 216Z" fill="#4096ee" stroke-width="0" /><path d="M24 216L24 240L48 240L48 216Z" fill="#4096ee" stroke-width="0" /><path d="M48 216L48 240L72 240L72 216Z" fill="#4096ee" stroke-width="0" /><path d="M72 216L72 240L96 240L96 216Z" fill="#4096ee" stroke-width="0" /><path d="M96 216L96 240L120 240L120 216Z" fill="#4096ee" stroke-width="0" /><path d="M120 216L120 240L144 240L144 216Z" fill="#4096ee" stroke-width="0" /><path d="M144 216L144 240L168 240L168 216Z" fill="#4096ee" stroke-width="0" /><path d="M168 216L168 240L192 240L192 216Z" fill="#4096ee" stroke-width="0" /><path d="M192 216L192 240L216 240L216 216Z" fill="#4096ee" stroke-width="0" /><path d="M216 216L216 240L240 240L240 216Z" fill="#4096ee" stroke-width="0" /><path d="M240 216L240 240L264 240L264 216Z" fill="#4096ee" stroke-width="0" /><path d="M264 216L264 240L288 240L288 216Z" fill="#4096ee" stroke-width="0" /><path d="M288 216L288 240L312 240L312 216Z" fill="#4096ee" stroke-width="0" /><path d="M312 216L312 240L336 240L336 216Z" fill="#000000" stroke-width="0" /><path d="M336 216L336 240L360 240L360 216Z" fill="#ffff88" stroke-width="0" /><path d="M360 216L360 240L384 240L384 216Z" fill="#ff52c8" stroke-width="0" /><path d="M384 216L384 240L408 240L408 216Z" fill="#9436ff" stroke-width="0" /><path d="M408 216L408 240L432 240L432 216Z" fill="#ff52c8" stroke-width="0" /><path d="M432 216L432 240L456 240L456 216Z" fill="#ff52c8" stroke-width="0" /><path d="M456 216L456 240L480 240L480 216Z" fill="#ff52c8" stroke-width="0" /><path d="M480 216L480 240L504 240L504 216Z" fill="#000000" stroke-width="0" /><path d="M504 216L504 240L528 240L528 216Z" fill="#474545" stroke-width="0" /><path d="M528 216L528 240L552 240L552 216Z" fill="#474545" stroke-width="0" /><path d="M552 216L552 240L576 240L576 216Z" fill="#474545" stroke-width="0" /><path d="M576 216L576 240L600 240L600 216Z" fill="#000000" stroke-width="0" /><path d="M600 216L600 240L624 240L624 216Z" fill="#000000" stroke-width="0" /><path d="M624 216L624 240L648 240L648 216Z" fill="#474545" stroke-width="0" /><path d="M648 216L648 240L672 240L672 216Z" fill="#474545" stroke-width="0" /><path d="M672 216L672 240L696 240L696 216Z" fill="#474545" stroke-width="0" /><path d="M696 216L696 240L720 240L720 216Z" fill="#000000" stroke-width="0" /><path d="M720 216L720 240L744 240L744 216Z" fill="#474545" stroke-width="0" /><path d="M744 216L744 240L768 240L768 216Z" fill="#000000" stroke-width="0" /><path d="M768 216L768 240L792 240L792 216Z" fill="#000000" stroke-width="0" /><path d="M792 216L792 240L816 240L816 216Z" fill="#474545" stroke-width="0" /><path d="M816 216L816 240L840 240L840 216Z" fill="#474545" stroke-width="0" /><path d="M840 216L840 240L864 240L864 216Z" fill="#000000" stroke-width="0" /><path d="M0 240L0 264L24 264L24 240Z" fill="#4096ee" stroke-width="0" /><path d="M24 240L24 264L48 264L48 240Z" fill="#4096ee" stroke-width="0" /><path d="M48 240L48 264L72 264L72 240Z" fill="#4096ee" stroke-width="0" /><path d="M72 240L72 264L96 264L96 240Z" fill="#8c0069" stroke-width="0" /><path d="M96 240L96 264L120 264L120 240Z" fill="#8c0069" stroke-width="0" /><path d="M120 240L120 264L144 264L144 240Z" fill="#8c0069" stroke-width="0" /><path d="M144 240L144 264L168 264L168 240Z" fill="#8c0069" stroke-width="0" /><path d="M168 240L168 264L192 264L192 240Z" fill="#8c0069" stroke-width="0" /><path d="M192 240L192 264L216 264L216 240Z" fill="#4096ee" stroke-width="0" /><path d="M216 240L216 264L240 264L240 240Z" fill="#4096ee" stroke-width="0" /><path d="M240 240L240 264L264 264L264 240Z" fill="#4096ee" stroke-width="0" /><path d="M264 240L264 264L288 264L288 240Z" fill="#4096ee" stroke-width="0" /><path d="M288 240L288 264L312 264L312 240Z" fill="#4096ee" stroke-width="0" /><path d="M312 240L312 264L336 264L336 240Z" fill="#000000" stroke-width="0" /><path d="M336 240L336 264L360 264L360 240Z" fill="#ffff88" stroke-width="0" /><path d="M360 240L360 264L384 264L384 240Z" fill="#ff52c8" stroke-width="0" /><path d="M384 240L384 264L408 264L408 240Z" fill="#ff52c8" stroke-width="0" /><path d="M408 240L408 264L432 264L432 240Z" fill="#ff52c8" stroke-width="0" /><path d="M432 240L432 264L456 264L456 240Z" fill="#9436ff" stroke-width="0" /><path d="M456 240L456 264L480 264L480 240Z" fill="#ff52c8" stroke-width="0" /><path d="M480 240L480 264L504 264L504 240Z" fill="#000000" stroke-width="0" /><path d="M504 240L504 264L528 264L528 240Z" fill="#474545" stroke-width="0" /><path d="M528 240L528 264L552 264L552 240Z" fill="#ff52c8" stroke-width="0" /><path d="M552 240L552 264L576 264L576 240Z" fill="#ff52c8" stroke-width="0" /><path d="M576 240L576 264L600 264L600 240Z" fill="#474545" stroke-width="0" /><path d="M600 240L600 264L624 264L624 240Z" fill="#474545" stroke-width="0" /><path d="M624 240L624 264L648 264L648 240Z" fill="#474545" stroke-width="0" /><path d="M648 240L648 264L672 264L672 240Z" fill="#474545" stroke-width="0" /><path d="M672 240L672 264L696 264L696 240Z" fill="#474545" stroke-width="0" /><path d="M696 240L696 264L720 264L720 240Z" fill="#474545" stroke-width="0" /><path d="M720 240L720 264L744 264L744 240Z" fill="#474545" stroke-width="0" /><path d="M744 240L744 264L768 264L768 240Z" fill="#474545" stroke-width="0" /><path d="M768 240L768 264L792 264L792 240Z" fill="#474545" stroke-width="0" /><path d="M792 240L792 264L816 264L816 240Z" fill="#ff52c8" stroke-width="0" /><path d="M816 240L816 264L840 264L840 240Z" fill="#ff52c8" stroke-width="0" /><path d="M840 240L840 264L864 264L864 240Z" fill="#000000" stroke-width="0" /><path d="M0 264L0 288L24 288L24 264Z" fill="#8c0069" stroke-width="0" /><path d="M24 264L24 288L48 288L48 264Z" fill="#8c0069" stroke-width="0" /><path d="M48 264L48 288L72 288L72 264Z" fill="#8c0069" stroke-width="0" /><path d="M72 264L72 288L96 288L96 264Z" fill="#8c0069" stroke-width="0" /><path d="M96 264L96 288L120 288L120 264Z" fill="#8c0069" stroke-width="0" /><path d="M120 264L120 288L144 288L144 264Z" fill="#8c0069" stroke-width="0" /><path d="M144 264L144 288L168 288L168 264Z" fill="#8c0069" stroke-width="0" /><path d="M168 264L168 288L192 288L192 264Z" fill="#8c0069" stroke-width="0" /><path d="M192 264L192 288L216 288L216 264Z" fill="#8c0069" stroke-width="0" /><path d="M216 264L216 288L240 288L240 264Z" fill="#8c0069" stroke-width="0" /><path d="M240 264L240 288L264 288L264 264Z" fill="#8c0069" stroke-width="0" /><path d="M264 264L264 288L288 288L288 264Z" fill="#8c0069" stroke-width="0" /><path d="M288 264L288 288L312 288L312 264Z" fill="#000000" stroke-width="0" /><path d="M312 264L312 288L336 288L336 264Z" fill="#000000" stroke-width="0" /><path d="M336 264L336 288L360 288L360 264Z" fill="#ffff88" stroke-width="0" /><path d="M360 264L360 288L384 288L384 264Z" fill="#ffff88" stroke-width="0" /><path d="M384 264L384 288L408 288L408 264Z" fill="#ff52c8" stroke-width="0" /><path d="M408 264L408 288L432 288L432 264Z" fill="#9436ff" stroke-width="0" /><path d="M432 264L432 288L456 288L456 264Z" fill="#ff52c8" stroke-width="0" /><path d="M456 264L456 288L480 288L480 264Z" fill="#ff52c8" stroke-width="0" /><path d="M480 264L480 288L504 288L504 264Z" fill="#000000" stroke-width="0" /><path d="M504 264L504 288L528 288L528 264Z" fill="#474545" stroke-width="0" /><path d="M528 264L528 288L552 288L552 264Z" fill="#ff52c8" stroke-width="0" /><path d="M552 264L552 288L576 288L576 264Z" fill="#ff52c8" stroke-width="0" /><path d="M576 264L576 288L600 288L600 264Z" fill="#474545" stroke-width="0" /><path d="M600 264L600 288L624 288L624 264Z" fill="#000000" stroke-width="0" /><path d="M624 264L624 288L648 288L648 264Z" fill="#474545" stroke-width="0" /><path d="M648 264L648 288L672 288L672 264Z" fill="#474545" stroke-width="0" /><path d="M672 264L672 288L696 288L696 264Z" fill="#000000" stroke-width="0" /><path d="M696 264L696 288L720 288L720 264Z" fill="#474545" stroke-width="0" /><path d="M720 264L720 288L744 288L744 264Z" fill="#474545" stroke-width="0" /><path d="M744 264L744 288L768 288L768 264Z" fill="#000000" stroke-width="0" /><path d="M768 264L768 288L792 288L792 264Z" fill="#474545" stroke-width="0" /><path d="M792 264L792 288L816 288L816 264Z" fill="#ff52c8" stroke-width="0" /><path d="M816 264L816 288L840 288L840 264Z" fill="#ff52c8" stroke-width="0" /><path d="M840 264L840 288L864 288L864 264Z" fill="#000000" stroke-width="0" /><path d="M0 288L0 312L24 312L24 288Z" fill="#8c0069" stroke-width="0" /><path d="M24 288L24 312L48 312L48 288Z" fill="#8c0069" stroke-width="0" /><path d="M48 288L48 312L72 312L72 288Z" fill="#8c0069" stroke-width="0" /><path d="M192 288L192 312L216 312L216 288Z" fill="#8c0069" stroke-width="0" /><path d="M216 288L216 312L240 312L240 288Z" fill="#8c0069" stroke-width="0" /><path d="M240 288L240 312L264 312L264 288Z" fill="#000000" stroke-width="0" /><path d="M264 288L264 312L288 312L288 288Z" fill="#000000" stroke-width="0" /><path d="M288 288L288 312L312 312L312 288Z" fill="#000000" stroke-width="0" /><path d="M312 288L312 312L336 312L336 288Z" fill="#000000" stroke-width="0" /><path d="M336 288L336 312L360 312L360 288Z" fill="#ffff88" stroke-width="0" /><path d="M360 288L360 312L384 312L384 288Z" fill="#ffff88" stroke-width="0" /><path d="M384 288L384 312L408 312L408 288Z" fill="#ffff88" stroke-width="0" /><path d="M408 288L408 312L432 312L432 288Z" fill="#ff52c8" stroke-width="0" /><path d="M432 288L432 312L456 312L456 288Z" fill="#ff52c8" stroke-width="0" /><path d="M456 288L456 312L480 312L480 288Z" fill="#ff52c8" stroke-width="0" /><path d="M480 288L480 312L504 312L504 288Z" fill="#ff52c8" stroke-width="0" /><path d="M504 288L504 312L528 312L528 288Z" fill="#000000" stroke-width="0" /><path d="M528 288L528 312L552 312L552 288Z" fill="#474545" stroke-width="0" /><path d="M552 288L552 312L576 312L576 288Z" fill="#474545" stroke-width="0" /><path d="M576 288L576 312L600 312L600 288Z" fill="#474545" stroke-width="0" /><path d="M600 288L600 312L624 312L624 288Z" fill="#000000" stroke-width="0" /><path d="M624 288L624 312L648 312L648 288Z" fill="#000000" stroke-width="0" /><path d="M648 288L648 312L672 312L672 288Z" fill="#000000" stroke-width="0" /><path d="M672 288L672 312L696 312L696 288Z" fill="#000000" stroke-width="0" /><path d="M696 288L696 312L720 312L720 288Z" fill="#000000" stroke-width="0" /><path d="M720 288L720 312L744 312L744 288Z" fill="#000000" stroke-width="0" /><path d="M744 288L744 312L768 312L768 288Z" fill="#000000" stroke-width="0" /><path d="M768 288L768 312L792 312L792 288Z" fill="#474545" stroke-width="0" /><path d="M792 288L792 312L816 312L816 288Z" fill="#474545" stroke-width="0" /><path d="M816 288L816 312L840 312L840 288Z" fill="#000000" stroke-width="0" /><path d="M216 312L216 336L240 336L240 312Z" fill="#000000" stroke-width="0" /><path d="M240 312L240 336L264 336L264 312Z" fill="#474545" stroke-width="0" /><path d="M264 312L264 336L288 336L288 312Z" fill="#474545" stroke-width="0" /><path d="M288 312L288 336L312 336L312 312Z" fill="#474545" stroke-width="0" /><path d="M312 312L312 336L336 336L336 312Z" fill="#000000" stroke-width="0" /><path d="M336 312L336 336L360 336L360 312Z" fill="#000000" stroke-width="0" /><path d="M360 312L360 336L384 336L384 312Z" fill="#ffff88" stroke-width="0" /><path d="M384 312L384 336L408 336L408 312Z" fill="#ffff88" stroke-width="0" /><path d="M408 312L408 336L432 336L432 312Z" fill="#ffff88" stroke-width="0" /><path d="M432 312L432 336L456 336L456 312Z" fill="#ffff88" stroke-width="0" /><path d="M456 312L456 336L480 336L480 312Z" fill="#ffff88" stroke-width="0" /><path d="M480 312L480 336L504 336L504 312Z" fill="#ffff88" stroke-width="0" /><path d="M504 312L504 336L528 336L528 312Z" fill="#ffff88" stroke-width="0" /><path d="M528 312L528 336L552 336L552 312Z" fill="#000000" stroke-width="0" /><path d="M552 312L552 336L576 336L576 312Z" fill="#474545" stroke-width="0" /><path d="M576 312L576 336L600 336L600 312Z" fill="#474545" stroke-width="0" /><path d="M600 312L600 336L624 336L624 312Z" fill="#474545" stroke-width="0" /><path d="M624 312L624 336L648 336L648 312Z" fill="#474545" stroke-width="0" /><path d="M648 312L648 336L672 336L672 312Z" fill="#474545" stroke-width="0" /><path d="M672 312L672 336L696 336L696 312Z" fill="#474545" stroke-width="0" /><path d="M696 312L696 336L720 336L720 312Z" fill="#474545" stroke-width="0" /><path d="M720 312L720 336L744 336L744 312Z" fill="#474545" stroke-width="0" /><path d="M744 312L744 336L768 336L768 312Z" fill="#474545" stroke-width="0" /><path d="M768 312L768 336L792 336L792 312Z" fill="#474545" stroke-width="0" /><path d="M792 312L792 336L816 336L816 312Z" fill="#000000" stroke-width="0" /><path d="M216 336L216 360L240 360L240 336Z" fill="#000000" stroke-width="0" /><path d="M240 336L240 360L264 360L264 336Z" fill="#474545" stroke-width="0" /><path d="M264 336L264 360L288 360L288 336Z" fill="#474545" stroke-width="0" /><path d="M288 336L288 360L312 360L312 336Z" fill="#000000" stroke-width="0" /><path d="M336 336L336 360L360 360L360 336Z" fill="#000000" stroke-width="0" /><path d="M360 336L360 360L384 360L384 336Z" fill="#000000" stroke-width="0" /><path d="M384 336L384 360L408 360L408 336Z" fill="#000000" stroke-width="0" /><path d="M408 336L408 360L432 360L432 336Z" fill="#000000" stroke-width="0" /><path d="M432 336L432 360L456 360L456 336Z" fill="#000000" stroke-width="0" /><path d="M456 336L456 360L480 360L480 336Z" fill="#000000" stroke-width="0" /><path d="M480 336L480 360L504 360L504 336Z" fill="#000000" stroke-width="0" /><path d="M504 336L504 360L528 360L528 336Z" fill="#000000" stroke-width="0" /><path d="M528 336L528 360L552 360L552 336Z" fill="#000000" stroke-width="0" /><path d="M552 336L552 360L576 360L576 336Z" fill="#000000" stroke-width="0" /><path d="M576 336L576 360L600 360L600 336Z" fill="#000000" stroke-width="0" /><path d="M600 336L600 360L624 360L624 336Z" fill="#000000" stroke-width="0" /><path d="M624 336L624 360L648 360L648 336Z" fill="#000000" stroke-width="0" /><path d="M648 336L648 360L672 360L672 336Z" fill="#000000" stroke-width="0" /><path d="M672 336L672 360L696 360L696 336Z" fill="#000000" stroke-width="0" /><path d="M696 336L696 360L720 360L720 336Z" fill="#000000" stroke-width="0" /><path d="M720 336L720 360L744 360L744 336Z" fill="#000000" stroke-width="0" /><path d="M744 336L744 360L768 360L768 336Z" fill="#000000" stroke-width="0" /><path d="M768 336L768 360L792 360L792 336Z" fill="#000000" stroke-width="0" /><path d="M216 360L216 384L240 384L240 360Z" fill="#000000" stroke-width="0" /><path d="M240 360L240 384L264 384L264 360Z" fill="#000000" stroke-width="0" /><path d="M264 360L264 384L288 384L288 360Z" fill="#000000" stroke-width="0" /><path d="M360 360L360 384L384 384L384 360Z" fill="#000000" stroke-width="0" /><path d="M384 360L384 384L408 384L408 360Z" fill="#474545" stroke-width="0" /><path d="M408 360L408 384L432 384L432 360Z" fill="#474545" stroke-width="0" /><path d="M432 360L432 384L456 384L456 360Z" fill="#000000" stroke-width="0" /><path d="M528 360L528 384L552 384L552 360Z" fill="#000000" stroke-width="0" /><path d="M552 360L552 384L576 384L576 360Z" fill="#474545" stroke-width="0" /><path d="M576 360L576 384L600 384L600 360Z" fill="#474545" stroke-width="0" /><path d="M600 360L600 384L624 384L624 360Z" fill="#000000" stroke-width="0" /><path d="M648 360L648 384L672 384L672 360Z" fill="#000000" stroke-width="0" /><path d="M672 360L672 384L696 384L696 360Z" fill="#474545" stroke-width="0" /><path d="M696 360L696 384L720 384L720 360Z" fill="#474545" stroke-width="0" /><path d="M720 360L720 384L744 384L744 360Z" fill="#000000" stroke-width="0" /><path d="M384 384L384 408L408 408L408 384Z" fill="#000000" stroke-width="0" /><path d="M408 384L408 408L432 408L432 384Z" fill="#000000" stroke-width="0" /><path d="M432 384L432 408L456 408L456 384Z" fill="#000000" stroke-width="0" /><path d="M552 384L552 408L576 408L576 384Z" fill="#000000" stroke-width="0" /><path d="M576 384L576 408L600 408L600 384Z" fill="#000000" stroke-width="0" /><path d="M600 384L600 408L624 408L624 384Z" fill="#000000" stroke-width="0" /><path d="M672 384L672 408L696 408L696 384Z" fill="#000000" stroke-width="0" /><path d="M696 384L696 408L720 408L720 384Z" fill="#000000" stroke-width="0" /><path d="M720 384L720 408L744 408L744 384Z" fill="#000000" stroke-width="0" /></svg>